<svg width="16" height="16" viewBox="0 0 16 16" fill="none" xmlns="http://www.w3.org/2000/svg">
<path d="M8.00033 5.33334C8.73366 5.33334 9.33366 4.73334 9.33366 4.00001C9.33366 3.26667 8.73366 2.66667 8.00033 2.66667C7.26699 2.66667 6.66699 3.26667 6.66699 4.00001C6.66699 4.73334 7.26699 5.33334 8.00033 5.33334ZM8.00033 6.66667C7.26699 6.66667 6.66699 7.26667 6.66699 8C6.66699 8.73334 7.26699 9.33334 8.00033 9.33334C8.73366 9.33334 9.33366 8.73334 9.33366 8C9.33366 7.26667 8.73366 6.66667 8.00033 6.66667ZM8.00033 10.6667C7.26699 10.6667 6.66699 11.2667 6.66699 12C6.66699 12.7333 7.26699 13.3333 8.00033 13.3333C8.73366 13.3333 9.33366 12.7333 9.33366 12C9.33366 11.2667 8.73366 10.6667 8.00033 10.6667Z" fill="#88898B"/>
</svg>
