<svg width="32" height="32" viewBox="0 0 32 32" fill="none" xmlns="http://www.w3.org/2000/svg">
<path d="M10.8024 20H18.1357C18.5024 20 18.8024 19.7 18.8024 19.3333C18.8024 18.9667 18.5024 18.6667 18.1357 18.6667H10.8024C10.4357 18.6667 10.1357 18.9667 10.1357 19.3333C10.1357 19.7 10.4357 20 10.8024 20ZM10.8024 16.6667H16.1357C16.5024 16.6667 16.8024 16.3667 16.8024 16C16.8024 15.6333 16.5024 15.3333 16.1357 15.3333H10.8024C10.4357 15.3333 10.1357 15.6333 10.1357 16C10.1357 16.3667 10.4357 16.6667 10.8024 16.6667ZM10.1357 12.6667C10.1357 13.0333 10.4357 13.3333 10.8024 13.3333H18.1357C18.5024 13.3333 18.8024 13.0333 18.8024 12.6667C18.8024 12.3 18.5024 12 18.1357 12H10.8024C10.4357 12 10.1357 12.3 10.1357 12.6667ZM21.6691 17.92L19.7491 16L21.6691 14.08C21.9291 13.82 21.9291 13.4 21.6691 13.14C21.4091 12.88 20.9891 12.88 20.7291 13.14L18.3357 15.5333C18.0757 15.7933 18.0757 16.2133 18.3357 16.4733L20.7291 18.8667C20.9891 19.1267 21.4091 19.1267 21.6691 18.8667C21.9224 18.6067 21.9291 18.18 21.6691 17.92Z" fill="black"/>
</svg>
