<svg width="32" height="32" viewBox="0 0 32 32" fill="none" xmlns="http://www.w3.org/2000/svg">
<g clip-path="url(#clip0_1822_58176)">
<rect width="32" height="32" rx="8" fill="#F6F6F6"/>
<path d="M10.6667 20H21.3333C21.7 20 22 19.7 22 19.3333C22 18.9667 21.7 18.6667 21.3333 18.6667H10.6667C10.3 18.6667 10 18.9667 10 19.3333C10 19.7 10.3 20 10.6667 20ZM10.6667 16.6667H21.3333C21.7 16.6667 22 16.3667 22 16C22 15.6333 21.7 15.3333 21.3333 15.3333H10.6667C10.3 15.3333 10 15.6333 10 16C10 16.3667 10.3 16.6667 10.6667 16.6667ZM10 12.6667C10 13.0333 10.3 13.3333 10.6667 13.3333H21.3333C21.7 13.3333 22 13.0333 22 12.6667C22 12.3 21.7 12 21.3333 12H10.6667C10.3 12 10 12.3 10 12.6667Z" fill="black"/>
</g>
<defs>
<clipPath id="clip0_1822_58176">
<rect width="32" height="32" rx="8" fill="white"/>
</clipPath>
</defs>
</svg>
